<?xml version="1.0" encoding="UTF-8" standalone="no"?>
<svg width="1024" height="1024" viewBox="0 0 1024 1024" fill="none" xmlns="http://www.w3.org/2000/svg">
  <!-- Background Circle -->
  <circle cx="512" cy="512" r="512" fill="#4A56E2" />
  
  <!-- Inner Circle with Gradient -->
  <circle cx="512" cy="512" r="450" fill="url(#paint0_radial)" />
  
  <!-- YouTube Play Button -->
  <path d="M512 320C421.6 320 345.6 328 284 344C222.4 360 192 392 192 440V584C192 632 222.4 664 284 680C345.6 696 421.6 704 512 704C602.4 704 678.4 696 740 680C801.6 664 832 632 832 584V440C832 392 801.6 360 740 344C678.4 328 602.4 320 512 320Z" fill="#FF0000" />
  
  <!-- Play Triangle -->
  <path d="M448 480V544L576 512L448 480Z" fill="white" />
  
  <!-- Text Bubble -->
  <rect x="256" y="240" width="512" height="160" rx="80" fill="white" />
  
  <!-- Summary Lines in Text Bubble -->
  <rect x="320" y="280" width="384" height="16" rx="8" fill="#4A56E2" />
  <rect x="320" y="320" width="320" height="16" rx="8" fill="#4A56E2" />
  <rect x="320" y="360" width="256" height="16" rx="8" fill="#4A56E2" />
  
  <!-- AI Brain Overlay -->
  <g opacity="0.7">
    <path d="M512 704C602.4 704 678.4 696 740 680C801.6 664 832 632 832 584V440C832 392 801.6 360 740 344C678.4 328 602.4 320 512 320C421.6 320 345.6 328 284 344C222.4 360 192 392 192 440V584C192 632 222.4 664 284 680C345.6 696 421.6 704 512 704Z" fill="url(#paint1_linear)" />
  </g>
  
  <!-- Sound Wave Lines -->
  <path d="M640 480C640 476.8 642.8 474 646 474C649.2 474 652 476.8 652 480V544C652 547.2 649.2 550 646 550C642.8 550 640 547.2 640 544V480Z" fill="white" />
  <path d="M664 464C664 460.8 666.8 458 670 458C673.2 458 676 460.8 676 464V560C676 563.2 673.2 566 670 566C666.8 566 664 563.2 664 560V464Z" fill="white" />
  <path d="M688 448C688 444.8 690.8 442 694 442C697.2 442 700 444.8 700 448V576C700 579.2 697.2 582 694 582C690.8 582 688 579.2 688 576V448Z" fill="white" />
  <path d="M712 432C712 428.8 714.8 426 718 426C721.2 426 724 428.8 724 432V592C724 595.2 721.2 598 718 598C714.8 598 712 595.2 712 592V432Z" fill="white" />
  
  <!-- Gradients -->
  <defs>
    <radialGradient id="paint0_radial" cx="0" cy="0" r="1" gradientUnits="userSpaceOnUse" gradientTransform="translate(512 512) rotate(90) scale(450)">
      <stop stop-color="#6C7AE0" />
      <stop offset="1" stop-color="#3A46C2" />
    </radialGradient>
    <linearGradient id="paint1_linear" x1="512" y1="320" x2="512" y2="704" gradientUnits="userSpaceOnUse">
      <stop stop-color="#00C9FF" />
      <stop offset="1" stop-color="#00B4FF" stop-opacity="0" />
    </linearGradient>
  </defs>
</svg>
